<svg width="128" height="128" viewBox="0 0 128 128" fill="none" xmlns="http://www.w3.org/2000/svg">
<mask id="mask0_701_4" style="mask-type:alpha" maskUnits="userSpaceOnUse" x="9" y="9" width="109" height="109">
<path d="M118 66.7059C118 99.8333 89.2361 118 63.5 118C37.7639 118 9 102.861 9 63.5C9 24.1389 31.7083 9 63.5 9C95.2917 9 118 33.5784 118 66.7059Z" fill="#FAFAFA"/>
</mask>
<g mask="url(#mask0_701_4)">
<path d="M118 66.7059C118 99.8333 89.2361 118 63.5 118C37.7639 118 9 102.861 9 63.5C9 24.1389 31.7083 9 63.5 9C95.2917 9 118 33.5784 118 66.7059Z" fill="#08190A"/>
<path d="M61.5444 4.6537C75.2792 51.6273 94.0094 74.7192 103.704 110.88C103.862 111.466 103.445 112.063 102.842 112.129C66.6081 116.119 53.7203 104.706 18.8243 111.623C18.046 111.777 17.3833 111.005 17.674 110.267C30.8726 76.7418 44.5917 63.2364 59.5656 4.70477C59.8202 3.70974 61.2561 3.66791 61.5444 4.6537Z" fill="#2ECC40"/>
<path d="M92.5454 20.6039C104.03 59.1435 119.59 78.2777 127.7 108.048C127.86 108.635 127.444 109.232 126.839 109.297C96.6817 112.54 85.8233 103.188 56.8243 108.8C56.0446 108.95 55.3867 108.177 55.6813 107.44C66.6765 79.9241 78.1041 68.5993 90.5666 20.6528C90.8242 19.6615 92.2529 19.6222 92.5454 20.6039Z" fill="#2ECC40" fill-opacity="0.92"/>
<path d="M30.0494 28.5553C39.7629 60.4443 52.8304 76.4526 59.6942 101.179C59.8575 101.767 59.4422 102.366 58.8351 102.43C33.4532 105.084 24.1907 97.3557 -0.175321 101.941C-0.956518 102.088 -1.60913 101.314 -1.30968 100.577C7.95332 77.7999 17.5794 68.2015 28.0676 28.5924C28.329 27.6054 29.7519 27.5786 30.0494 28.5553Z" fill="#2ECC40" fill-opacity="0.92"/>
</g>
</svg>
